<svg xmlns="http://www.w3.org/2000/svg" viewBox="0 0 417.6 174.97"><defs><style>.cls-1{fill:#005cb9;}.cls-2{fill:#f7ce3c;}</style></defs><title>Asset 1</title><g id="Layer_2" data-name="Layer 2"><g id="Layer_1-2" data-name="Layer 1"><path class="cls-1" d="M203.22,71.71a2.07,2.07,0,0,0-.65-1.46,2,2,0,0,0-2.95,0,14,14,0,0,1-10.46,4.12,12.92,12.92,0,0,1-10-4.2,15.75,15.75,0,0,1-3.85-10.92A16.25,16.25,0,0,1,179,48.36a11.46,11.46,0,0,1,9.16-4.22A13.18,13.18,0,0,1,196,46.79a16.25,16.25,0,0,1,2.58,2.26v3a2.08,2.08,0,1,0,4.15,0V42.56a2.08,2.08,0,1,0-4.15,0v.86A17.25,17.25,0,0,0,188.16,40a15.54,15.54,0,0,0-12.32,5.59c-3.13,3.56-4.72,8.16-4.72,13.69a20.18,20.18,0,0,0,4.93,13.81,16.94,16.94,0,0,0,13.1,5.47,18,18,0,0,0,13.41-5.37,2.07,2.07,0,0,0,.65-1.46"/><path class="cls-1" d="M210.24,64.25a10.54,10.54,0,0,1,2.59-7.42,9.89,9.89,0,0,1,13.61,0A10.53,10.53,0,0,1,229,64.25a10.58,10.58,0,0,1-2.58,7.46,10.08,10.08,0,0,1-13.67,0,10.47,10.47,0,0,1-2.53-7.47m9.39,14.29a12.86,12.86,0,0,0,9.79-4,14.49,14.49,0,0,0,3.75-10.28A14.5,14.5,0,0,0,229.43,54a14,14,0,0,0-19.59,0,14.5,14.5,0,0,0-3.75,10.28,14.49,14.49,0,0,0,3.75,10.28,12.86,12.86,0,0,0,9.79,4"/><path class="cls-1" d="M256.4,58.27a2.08,2.08,0,1,0,4.15,0V52A2,2,0,0,0,258.48,50H256a16.34,16.34,0,0,0-11.14,4.41V52.54a2,2,0,0,0-2.08-2.08h-5a2.08,2.08,0,0,0,0,4.15h2.91V73.89h-2.9a2.08,2.08,0,1,0,0,4.15h10.47a2.08,2.08,0,0,0,0-4.15H244.9v-13A12.87,12.87,0,0,1,256,54.12h.37Z"/><path class="cls-1" d="M286,64.25a10.6,10.6,0,0,1-2.58,7.46,10.08,10.08,0,0,1-13.67,0,10.47,10.47,0,0,1-2.53-7.47,10.54,10.54,0,0,1,2.59-7.42,9.89,9.89,0,0,1,13.61,0A10.53,10.53,0,0,1,286,64.25M276.58,50a12.87,12.87,0,0,0-9.79,4A14.5,14.5,0,0,0,263,64.25a14.49,14.49,0,0,0,3.75,10.28,14,14,0,0,0,19.59,0,14.48,14.48,0,0,0,3.75-10.28A14.5,14.5,0,0,0,286.38,54a12.86,12.86,0,0,0-9.79-4"/><path class="cls-1" d="M294.79,73.9a2.08,2.08,0,1,0,0,4.15h9.47a2.08,2.08,0,1,0,0-4.15h-2.41v-14a15.75,15.75,0,0,1,2.2-2.77,8.83,8.83,0,0,1,6.19-3c4.58,0,6.9,2.4,6.9,7.15V73.9h-2.41a2.08,2.08,0,0,0,0,4.15h9.48a2.08,2.08,0,0,0,0-4.15H321.3V61.26c0-7.18-4-11.3-11.05-11.3a12.42,12.42,0,0,0-8.4,3.44v-.86a2,2,0,0,0-2.08-2.08h-5a2.08,2.08,0,0,0,0,4.15h2.91V73.9Z"/><path class="cls-1" d="M346.47,65.09v3.55a13.63,13.63,0,0,1-2.15,2.8,8.94,8.94,0,0,1-6.49,3c-3.91,0-6.15-1.7-6.15-4.65s2.61-4.65,7.15-4.65Zm-7.65-4.16c-6.65,0-11.3,3.62-11.3,8.81,0,5.35,4,8.81,10.3,8.81a12.3,12.3,0,0,0,6.23-1.64,17.58,17.58,0,0,0,2.42-1.75V76A2,2,0,0,0,348.55,78h5a2.08,2.08,0,0,0,0-4.15h-2.91V59.52a8.87,8.87,0,0,0-3-6.81A10.75,10.75,0,0,0,340,50a15.43,15.43,0,0,0-9.8,3.19,1.93,1.93,0,0,0-.83,1.3,2,2,0,0,0,.38,1.48,1.92,1.92,0,0,0,1.31.93,2.09,2.09,0,0,0,1.68-.49A11.85,11.85,0,0,1,340,54.12c3.74,0,6.45,2.27,6.45,5.4v1.42Z"/><path class="cls-1" d="M361.9,64c0-6.05,3.78-9.39,10.64-9.39h6.15v14a13.7,13.7,0,0,1-2.15,2.8,8.94,8.94,0,0,1-6.49,3c-5.1,0-8.15-3.89-8.15-10.39M370,78.55a12.28,12.28,0,0,0,6.21-1.63,16,16,0,0,0,2.43-1.74V76A2,2,0,0,0,380.76,78h5a2.08,2.08,0,1,0,0-4.15h-2.91V42.56a2,2,0,0,0-2.08-2.08h-5.48a2.08,2.08,0,0,0,0,4.15h3.41v5.81h-6.14c-9.12,0-14.79,5.19-14.79,13.54,0,9,4.71,14.54,12.3,14.54"/><path class="cls-1" d="M413.45,64.25a10.58,10.58,0,0,1-2.58,7.46,10.08,10.08,0,0,1-13.67,0,10.46,10.46,0,0,1-2.53-7.47,10.54,10.54,0,0,1,2.59-7.42,9.89,9.89,0,0,1,13.61,0,10.53,10.53,0,0,1,2.59,7.42m.4-10.28a14,14,0,0,0-19.59,0,14.49,14.49,0,0,0-3.75,10.28,14.48,14.48,0,0,0,3.75,10.28,14,14,0,0,0,19.59,0,14.48,14.48,0,0,0,3.75-10.28A14.5,14.5,0,0,0,413.85,54"/><path class="cls-1" d="M196.11,114.06a47.42,47.42,0,0,0-8.59-2.89,48.82,48.82,0,0,1-7.06-2.26c-1.33-.6-3.55-2-3.55-4.47,0-3.7,3.23-5.9,8.64-5.9a13.69,13.69,0,0,1,7.81,2.65,16.17,16.17,0,0,1,2.58,2.26v3a2.08,2.08,0,1,0,4.15,0V96.95a2.08,2.08,0,1,0-4.15,0v.89a17.84,17.84,0,0,0-10.39-3.47c-11.55,0-12.8,7-12.8,10.05,0,3.7,1.71,6.34,5.22,8.07a47.76,47.76,0,0,0,8.6,2.9,48.37,48.37,0,0,1,7.06,2.26c1.33.6,3.55,2,3.55,4.47,0,4.16-3.51,6.65-9.39,6.65a14.82,14.82,0,0,1-8.31-2.53,13.17,13.17,0,0,1-2.58-2.13v-3.23a2.08,2.08,0,0,0-4.15,0v9.47a2.08,2.08,0,0,0,4.15,0v-.9a18.76,18.76,0,0,0,10.89,3.48c8.35,0,13.54-4.14,13.54-10.8,0-3.71-1.71-6.34-5.22-8.07"/><path class="cls-1" d="M226.45,125.56h0a10.9,10.9,0,0,1-8.2,3.21,8.24,8.24,0,0,1-6.39-2.65,10.79,10.79,0,0,1-2.5-7.49,11.21,11.21,0,0,1,2.37-7.41,7.27,7.27,0,0,1,5.78-2.73,9.6,9.6,0,0,1,6.14,2.34,14.25,14.25,0,0,1,2,2v2a2.08,2.08,0,0,0,4.15,0v-8a2.08,2.08,0,1,0-4.15,0v.25a13,13,0,0,0-8.14-2.83,11.18,11.18,0,0,0-8.83,4.1,16.6,16.6,0,0,0,.11,20.46,12.15,12.15,0,0,0,9.47,4,15.36,15.36,0,0,0,11-4.16,2,2,0,0,0,.74-1.4,2.18,2.18,0,0,0-.62-1.6,2,2,0,0,0-3-.21"/><path class="cls-1" d="M263.74,128.28h-2.91V115.65c0-7.18-4-11.3-11.05-11.3a12.4,12.4,0,0,0-8.39,3.44V96.95a2,2,0,0,0-2.08-2.08h-5a2.08,2.08,0,0,0,0,4.15h2.91v29.25h-2.91a2.08,2.08,0,0,0,0,4.15h9.48a2.08,2.08,0,0,0,0-4.15h-2.41v-14a18.23,18.23,0,0,1,2.2-2.78,8.83,8.83,0,0,1,6.19-3c4.58,0,6.9,2.41,6.9,7.15v12.63h-2.41a2.08,2.08,0,1,0,0,4.15h9.47a2.08,2.08,0,1,0,0-4.15"/><path class="cls-1" d="M290.23,118.64a10.59,10.59,0,0,1-2.58,7.46,10.08,10.08,0,0,1-13.67,0,12.11,12.11,0,0,1,.05-14.89,9.88,9.88,0,0,1,13.61,0,10.53,10.53,0,0,1,2.59,7.42m-9.39-14.29a12.86,12.86,0,0,0-9.8,4,16,16,0,0,0,0,20.56,14,14,0,0,0,19.59,0,16,16,0,0,0,0-20.56,12.86,12.86,0,0,0-9.8-4"/><path class="cls-1" d="M321,118.64a10.59,10.59,0,0,1-2.58,7.46,10.08,10.08,0,0,1-13.67,0,12.11,12.11,0,0,1,.05-14.89,9.88,9.88,0,0,1,13.61,0,10.53,10.53,0,0,1,2.59,7.42m-9.39-14.29a12.86,12.86,0,0,0-9.8,4,16,16,0,0,0,0,20.56,14,14,0,0,0,19.59,0,16,16,0,0,0,0-20.56,12.86,12.86,0,0,0-9.8-4"/><path class="cls-1" d="M339,128.28h-2.91V96.95A2,2,0,0,0,334,94.87h-5A2.08,2.08,0,1,0,329,99h2.91v29.25H329a2.08,2.08,0,1,0,0,4.15h10a2.08,2.08,0,1,0,0-4.15"/><path class="cls-1" d="M361.28,117.49h0c-1.41-.32-2.93-.54-4.4-.76-2.94-.44-6-.9-7.74-2a2.72,2.72,0,0,1-1.38-2.57c0-1.76,2.24-3.66,7.15-3.66a9.58,9.58,0,0,1,6.16,2.36,12.75,12.75,0,0,1,2,2v2a2.08,2.08,0,1,0,4.15,0v-8a2.08,2.08,0,1,0-4.15,0v.28a13.64,13.64,0,0,0-8.15-2.86c-7.42,0-11.3,3.93-11.3,7.81,0,5,3.62,6.64,6.79,7.57,1.65.42,3.45.68,5.2.94,2.66.39,5.41.8,7,1.67a2.28,2.28,0,0,1,1.46,2.28c0,2.56-2.93,4.15-7.65,4.15a10.23,10.23,0,0,1-6.66-2.31,11.16,11.16,0,0,1-2-2v-2.06a2.08,2.08,0,0,0-4.15,0v8a2.08,2.08,0,1,0,4.15,0V130a15,15,0,0,0,8.64,2.89c8.7,0,11.8-4.29,11.8-8.31,0-5.48-5.2-6.72-6.91-7.13"/><path class="cls-1" d="M120.27,65.34c0,.3,0,.62,0,.95s0,.65,0,.95Z"/><path class="cls-1" d="M40,78.86l-.11-.05Z"/><path class="cls-2" d="M59.47,150.85c-5.76,4.4-8.48,10.77-7,12.62.77.94,5.14,1.81,6.69,1.85,3,.08,5.78-.7,8.88-4.31,2.47-2.87,5.37-7.22,6.17-10.27,1,3,4.18,7.21,6.85,9.95,3.33,3.42,6.12,4,9.14,3.76,1.54-.13,5.85-1.27,6.56-2.25C98.14,160.27,95,154.08,89,150c-2.08-1.4-9-3.21-15.63-3-6.12.22-12,2.39-13.86,3.79"/><path class="cls-1" d="M71.4,156.51a22,22,0,0,0,2.82-5.76,22.1,22.1,0,0,0,3.3,5.76Zm9.68,4.19c-.53-.55-1.09-1.16-1.64-1.81H69.74c-.57.76-1.14,1.48-1.69,2.12a16.56,16.56,0,0,1-1.81,1.8H83.57A15.91,15.91,0,0,1,81.07,160.7ZM74.66,175a9.78,9.78,0,0,0,10-9.6H64.7A9.78,9.78,0,0,0,74.66,175Zm11.07-42.88a1,1,0,0,0-1.43-.13l-5.25,4.4a8.72,8.72,0,0,0-4.7-1.46,8.25,8.25,0,0,0-4.63,1.49L64.42,132a1,1,0,1,0-1.3,1.56l5,4.2a12.47,12.47,0,0,0-3.62,8.46,37.94,37.94,0,0,1,9.5-1.52,64.85,64.85,0,0,1,10.6,1.46,12.15,12.15,0,0,0-3.93-8.48l4.92-4.13A1,1,0,0,0,85.74,132.09Z"/><path class="cls-1" d="M32.95,73c-3.55-3.68-6.84-7.68-6.84-7.68s3.24-3.39,6.76-6.54Zm83.43-19.46H40.66a3.28,3.28,0,0,0-1.21.35c1.72.69,2.7,2.25,2.06,3.79L41,58.82a5,5,0,0,0,.19,4.33L42.35,65a2.52,2.52,0,0,1-.13,2.87L41.38,69A4.88,4.88,0,0,0,41,73.47l.69,1.84A2.88,2.88,0,0,1,40,78.86a2.05,2.05,0,0,0,.7.15h75.72c3.12,0,3.82-7.65,3.89-12.73S119.49,53.56,116.38,53.56ZM126.06,83H13.19c-3.32,0-3.9,8.66-3.9,13.67v-1.9c0,5,.58,13.67,3.9,13.67H126.06ZM142,95.73l-6-6.21v12.41ZM42.74,144.17H10.13c-3.32,0-3.9,6.89-3.9,12.3v.42c0,5.41.58,14.77,3.9,14.77h26c.27-10.2,3.38-19.54,6.65-27.48m96.3,0H106.59c3.27,7.94,6.22,17.28,6.49,27.48h26c3.32,0,3.9-9.36,3.9-14.77v-.42c0-5.41-.58-12.3-3.9-12.3m6.23-31.62H3.9c-3.32,0-3.9,8.67-3.9,13.68v.38c0,5,.58,13.68,3.9,13.68H44.65c7.07-12.73,17.85-20.57,29.94-20.57s22.87,7.85,29.94,20.57h40.75c3.32,0,3.9-8.66,3.9-13.68v-.38c0-5-.58-13.68-3.9-13.68"/><path class="cls-2" d="M42.35,65a2.52,2.52,0,0,1-.13,2.87L41.38,69A4.88,4.88,0,0,0,41,73.47l.69,1.84A2.88,2.88,0,0,1,40,78.86c-1.68-.63-7-5.84-7-5.84L32.86,58.8s4.87-4.13,6.58-4.9c1.73.69,2.72,2.25,2.08,3.8L41,58.82a5,5,0,0,0,.19,4.33Zm58.74-25c.68,0,.6-.46.76-1.13,0,0,2.22-11.05,3.6-16.5s3.25-10.69,3.25-10.69c.3-1.21.47-2.82-2.05-1.72L90.12,17.37a1.49,1.49,0,0,1-1.82-.49s-4.8-6.54-6.7-9.05c-1-1.36-4.68-6.64-4.68-6.64-1.13-1.63-1.37-1.53-2.4,0,0,0-4.8,6.6-6.62,8.94-1.2,1.55-5.07,6.79-5.07,6.79a1.49,1.49,0,0,1-1.81.47s-5.72-3.09-8-4.13C51.24,12.43,44.83,10,44.83,10c-2.49-1.12-2.37.51-2.06,1.72,0,0,2,6.27,3.66,12.86.89,3.48,3.19,14.3,3.19,14.3.17.66.27,1.13.95,1.13,0,0,13.61-1.22,25.46-1.22C88.2,38.78,101.09,40,101.09,40ZM32.54,83H25.9v25.43h6.63Zm94.85,0h-1.33v25.45h1.33c1.41,0,8.58-6.58,8.58-6.58V89.53s-7-6.52-8.58-6.52m2.33,61.2h-8.87v27.45h8.87ZM20.39,112.55H18.46v27.74h1.94Zm11.81,0H23.89v27.74H32.2Z"/></g></g></svg>