<svg xmlns="http://www.w3.org/2000/svg" viewBox="0 0 246.47 338.26"><defs><style>.cls-1{fill:#0072bc;}.cls-2{fill:#f7ce3c;}</style></defs><title>Asset 2</title><g id="Layer_2" data-name="Layer 2"><g id="Layer_1-2" data-name="Layer 1"><path class="cls-1" d="M168.92,65.34c0,.3,0,.62,0,.95s0,.65,0,.95Z"/><path class="cls-1" d="M88.61,78.86l-.11-.05Z"/><path class="cls-2" d="M108.13,150.85c-5.76,4.4-8.48,10.77-7,12.62.77.94,5.14,1.81,6.69,1.85,3,.08,5.78-.7,8.88-4.31,2.47-2.87,5.37-7.22,6.17-10.27,1,3,4.18,7.21,6.85,9.95,3.33,3.42,6.12,4,9.14,3.76,1.54-.13,5.85-1.27,6.56-2.25,1.37-1.93-1.77-8.12-7.8-12.17-2.08-1.4-9-3.21-15.63-3-6.12.22-12,2.39-13.86,3.79"/><path class="cls-1" d="M120,156.51a22,22,0,0,0,2.82-5.76,22.1,22.1,0,0,0,3.3,5.76Zm9.68,4.19c-.53-.55-1.09-1.16-1.64-1.81h-9.69c-.57.76-1.14,1.48-1.69,2.12a16.55,16.55,0,0,1-1.81,1.8h17.32A15.91,15.91,0,0,1,129.72,160.69ZM123.31,175a9.78,9.78,0,0,0,10-9.6H113.35A9.78,9.78,0,0,0,123.31,175Zm11.07-42.88A1,1,0,0,0,133,132l-5.25,4.4a8.72,8.72,0,0,0-4.7-1.46,8.25,8.25,0,0,0-4.63,1.49L113.07,132a1,1,0,1,0-1.3,1.56l5,4.2a12.47,12.47,0,0,0-3.62,8.46,37.93,37.93,0,0,1,9.5-1.52,64.84,64.84,0,0,1,10.6,1.46,12.15,12.15,0,0,0-3.93-8.48l4.92-4.13A1,1,0,0,0,134.39,132.09Z"/><path class="cls-1" d="M81.6,73c-3.55-3.68-6.84-7.68-6.84-7.68S78,61.95,81.51,58.8ZM165,53.56H89.31a3.28,3.28,0,0,0-1.21.35c1.72.69,2.7,2.25,2.06,3.79l-.47,1.13a5,5,0,0,0,.19,4.33L91,65a2.52,2.52,0,0,1-.13,2.87L90,69a4.88,4.88,0,0,0-.36,4.44l.69,1.84a2.88,2.88,0,0,1-1.75,3.55,2.05,2.05,0,0,0,.7.15H165c3.12,0,3.82-7.65,3.89-12.73S168.14,53.56,165,53.56ZM174.71,83H61.84c-3.32,0-3.9,8.66-3.9,13.67v-1.9c0,5,.58,13.67,3.9,13.67H174.71Zm15.9,12.73-6-6.21v12.41ZM91.39,144.17H58.78c-3.32,0-3.9,6.89-3.9,12.3v.42c0,5.41.58,14.77,3.9,14.77h26c.27-10.2,3.38-19.54,6.65-27.48m96.3,0H155.24c3.27,7.94,6.22,17.28,6.49,27.48h26c3.32,0,3.9-9.36,3.9-14.77v-.42c0-5.41-.58-12.3-3.9-12.3m6.23-31.62H52.55c-3.32,0-3.9,8.67-3.9,13.68v.38c0,5,.58,13.68,3.9,13.68H93.3c7.06-12.73,17.85-20.57,29.94-20.57s22.87,7.85,29.94,20.57h40.75c3.32,0,3.9-8.66,3.9-13.68v-.38c0-5-.58-13.68-3.9-13.68"/><path class="cls-2" d="M91,65a2.52,2.52,0,0,1-.13,2.87L90,69a4.88,4.88,0,0,0-.36,4.44l.69,1.84a2.88,2.88,0,0,1-1.75,3.55c-1.68-.63-7-5.84-7-5.84L81.51,58.8s4.87-4.13,6.58-4.9c1.73.69,2.72,2.25,2.08,3.8l-.47,1.13a5,5,0,0,0,.19,4.33Zm58.74-25c.68,0,.6-.46.76-1.13,0,0,2.22-11.05,3.6-16.5s3.25-10.69,3.25-10.69c.3-1.21.47-2.82-2.05-1.72l-16.53,7.41a1.49,1.49,0,0,1-1.82-.48s-4.8-6.54-6.7-9.05c-1-1.36-4.68-6.64-4.68-6.64-1.13-1.63-1.37-1.53-2.4,0,0,0-4.8,6.6-6.62,8.94-1.2,1.55-5.07,6.79-5.07,6.79a1.49,1.49,0,0,1-1.81.47s-5.72-3.09-8-4.13C99.9,12.43,93.48,10,93.48,10c-2.49-1.12-2.37.51-2.06,1.72,0,0,2,6.27,3.66,12.86.89,3.48,3.19,14.3,3.19,14.3.17.66.27,1.13.95,1.13,0,0,13.61-1.22,25.46-1.22C136.85,38.78,149.74,40,149.74,40ZM81.19,83H74.55v25.43h6.63ZM176,83H174.7v25.45H176c1.41,0,8.58-6.58,8.58-6.58V89.53S177.58,83,176,83m2.33,61.2H169.5v27.45h8.87ZM69,112.55H67.11v27.74H69Zm11.81,0H72.54v27.74h8.32Z"/><path class="cls-1" d="M32.09,238.15a2.07,2.07,0,0,0-.65-1.46,2,2,0,0,0-2.95,0A14,14,0,0,1,18,240.83a12.92,12.92,0,0,1-10-4.2,15.75,15.75,0,0,1-3.85-10.92,16.25,16.25,0,0,1,3.72-10.91A11.46,11.46,0,0,1,17,210.58a13.18,13.18,0,0,1,7.81,2.65,16.25,16.25,0,0,1,2.58,2.26v3a2.08,2.08,0,1,0,4.15,0V209a2.08,2.08,0,1,0-4.15,0v.86A17.25,17.25,0,0,0,17,206.43,15.54,15.54,0,0,0,4.72,212C1.59,215.58,0,220.18,0,225.71a20.18,20.18,0,0,0,4.93,13.81A16.94,16.94,0,0,0,18,245a18,18,0,0,0,13.41-5.37,2.07,2.07,0,0,0,.65-1.47"/><path class="cls-1" d="M39.11,230.69a10.54,10.54,0,0,1,2.59-7.42,8.78,8.78,0,0,1,6.81-2.71,8.77,8.77,0,0,1,6.81,2.71,12,12,0,0,1,0,14.89,9,9,0,0,1-6.82,2.68,9.07,9.07,0,0,1-6.86-2.67,10.47,10.47,0,0,1-2.53-7.47M48.5,245a12.86,12.86,0,0,0,9.79-4,16,16,0,0,0,0-20.56,12.87,12.87,0,0,0-9.8-4,12.86,12.86,0,0,0-9.79,4,16,16,0,0,0,0,20.56,12.86,12.86,0,0,0,9.79,4"/><path class="cls-1" d="M85.28,224.71a2.08,2.08,0,1,0,4.15,0v-6.23a2,2,0,0,0-2.08-2.08H84.91a16.34,16.34,0,0,0-11.14,4.41V219a2,2,0,0,0-2.08-2.08h-5a2.08,2.08,0,0,0,0,4.15h2.91v19.28h-2.9a2.08,2.08,0,1,0,0,4.15H77.18a2.08,2.08,0,0,0,0-4.15H73.77v-13a12.87,12.87,0,0,1,11.13-6.76h.37Z"/><path class="cls-1" d="M114.85,230.7a10.6,10.6,0,0,1-2.58,7.46,10.08,10.08,0,0,1-13.67,0,12.11,12.11,0,0,1,.05-14.89,9.89,9.89,0,0,1,13.61,0,10.53,10.53,0,0,1,2.59,7.42m-9.39-14.29a12.87,12.87,0,0,0-9.79,4,16,16,0,0,0,0,20.56,14,14,0,0,0,19.59,0,16,16,0,0,0,0-20.56,12.86,12.86,0,0,0-9.79-4"/><path class="cls-1" d="M123.66,240.34a2.08,2.08,0,1,0,0,4.15h9.47a2.08,2.08,0,1,0,0-4.15h-2.41v-14a15.75,15.75,0,0,1,2.2-2.77,8.83,8.83,0,0,1,6.19-3c4.58,0,6.9,2.4,6.9,7.15v12.63h-2.41a2.08,2.08,0,1,0,0,4.15h9.48a2.08,2.08,0,1,0,0-4.15h-2.91V227.71c0-7.18-4-11.3-11.05-11.3a12.42,12.42,0,0,0-8.4,3.44V219a2,2,0,0,0-2.08-2.08h-5a2.08,2.08,0,0,0,0,4.16h2.91v19.28Z"/><path class="cls-1" d="M175.34,231.53v3.55a13.63,13.63,0,0,1-2.15,2.8,8.94,8.94,0,0,1-6.49,3c-3.91,0-6.15-1.7-6.15-4.65s2.61-4.65,7.15-4.65Zm-7.65-4.16c-6.65,0-11.3,3.62-11.3,8.81,0,5.35,4,8.81,10.3,8.81a12.3,12.3,0,0,0,6.23-1.64,17.58,17.58,0,0,0,2.42-1.75v.82a2,2,0,0,0,2.08,2.08h5a2.08,2.08,0,0,0,0-4.15H179.5V226a8.87,8.87,0,0,0-3-6.81,10.75,10.75,0,0,0-7.64-2.75,15.43,15.43,0,0,0-9.8,3.19,1.93,1.93,0,0,0-.83,1.3,2,2,0,0,0,.38,1.48,1.92,1.92,0,0,0,1.31.93,2.09,2.09,0,0,0,1.68-.49,11.85,11.85,0,0,1,7.26-2.26c3.74,0,6.45,2.27,6.45,5.4v1.42Z"/><path class="cls-1" d="M190.77,230.44c0-6.05,3.78-9.39,10.64-9.39h6.15v14a13.7,13.7,0,0,1-2.15,2.8,8.94,8.94,0,0,1-6.49,3c-5.1,0-8.15-3.89-8.15-10.39M198.92,245a12.28,12.28,0,0,0,6.21-1.63,16,16,0,0,0,2.43-1.74v.8a2,2,0,0,0,2.08,2.07h5a2.08,2.08,0,1,0,0-4.15h-2.91V209a2,2,0,0,0-2.08-2.08h-5.48a2.08,2.08,0,0,0,0,4.16h3.41v5.81h-6.14c-9.12,0-14.79,5.19-14.79,13.54,0,9,4.71,14.54,12.3,14.54"/><path class="cls-1" d="M242.32,230.69a10.58,10.58,0,0,1-2.58,7.46,10.08,10.08,0,0,1-13.67,0,12.11,12.11,0,0,1,.05-14.89,9.89,9.89,0,0,1,13.61,0,10.53,10.53,0,0,1,2.59,7.42m.4-10.28a14,14,0,0,0-19.59,0,16,16,0,0,0,0,20.56,14,14,0,0,0,19.59,0,16,16,0,0,0,0-20.56"/><path class="cls-1" d="M48.87,280.5a47.42,47.42,0,0,0-8.59-2.89,48.83,48.83,0,0,1-7.06-2.26c-1.33-.6-3.55-2-3.55-4.47,0-3.7,3.23-5.9,8.64-5.9a13.69,13.69,0,0,1,7.81,2.65,16.17,16.17,0,0,1,2.58,2.26v3a2.08,2.08,0,1,0,4.15,0v-9.47a2.08,2.08,0,1,0-4.15,0v.89a17.84,17.84,0,0,0-10.39-3.47c-11.55,0-12.8,7-12.8,10.05,0,3.7,1.71,6.34,5.22,8.07a47.75,47.75,0,0,0,8.6,2.9,48.38,48.38,0,0,1,7.06,2.26c1.33.6,3.55,2,3.55,4.47,0,4.16-3.51,6.65-9.39,6.65a14.82,14.82,0,0,1-8.31-2.53,13.17,13.17,0,0,1-2.58-2.13v-3.23a2.08,2.08,0,0,0-4.15,0v9.47a2.08,2.08,0,1,0,4.15,0v-.9a18.76,18.76,0,0,0,10.89,3.48c8.35,0,13.54-4.14,13.54-10.8,0-3.71-1.71-6.34-5.22-8.07"/><path class="cls-1" d="M79.22,292h0a10.9,10.9,0,0,1-8.2,3.21,8.24,8.24,0,0,1-6.39-2.65,10.79,10.79,0,0,1-2.5-7.49,11.21,11.21,0,0,1,2.37-7.41,7.27,7.27,0,0,1,5.78-2.73,9.6,9.6,0,0,1,6.14,2.34,14.25,14.25,0,0,1,2,2v2a2.08,2.08,0,0,0,4.15,0v-8a2.08,2.08,0,1,0-4.15,0v.25a13,13,0,0,0-8.14-2.83,11.18,11.18,0,0,0-8.83,4.1,16.6,16.6,0,0,0,.11,20.46,12.15,12.15,0,0,0,9.47,4,15.36,15.36,0,0,0,11-4.16,2,2,0,0,0,.74-1.4,2.18,2.18,0,0,0-.62-1.6,2,2,0,0,0-3-.21"/><path class="cls-1" d="M116.5,294.72h-2.91V282.09c0-7.18-4-11.3-11.05-11.3a12.4,12.4,0,0,0-8.39,3.44V263.39a2,2,0,0,0-2.08-2.08h-5a2.08,2.08,0,0,0,0,4.15H90v29.25H87.08a2.08,2.08,0,0,0,0,4.15h9.48a2.08,2.08,0,1,0,0-4.15H94.15v-14a18.23,18.23,0,0,1,2.2-2.78,8.83,8.83,0,0,1,6.19-3c4.58,0,6.9,2.41,6.9,7.15v12.63H107a2.08,2.08,0,1,0,0,4.15h9.47a2.08,2.08,0,1,0,0-4.15"/><path class="cls-1" d="M143,285.08a10.59,10.59,0,0,1-2.58,7.46,10.08,10.08,0,0,1-13.67,0,12.11,12.11,0,0,1,.05-14.89,9.88,9.88,0,0,1,13.61,0,10.53,10.53,0,0,1,2.59,7.42m-9.39-14.29a12.86,12.86,0,0,0-9.8,4,16,16,0,0,0,0,20.56,14,14,0,0,0,19.59,0,16,16,0,0,0,0-20.56,12.86,12.86,0,0,0-9.8-4"/><path class="cls-1" d="M173.77,285.08a10.59,10.59,0,0,1-2.58,7.46,10.08,10.08,0,0,1-13.67,0,12.11,12.11,0,0,1,.05-14.89,9.88,9.88,0,0,1,13.61,0,10.53,10.53,0,0,1,2.59,7.42m-9.39-14.29a12.86,12.86,0,0,0-9.8,4,16,16,0,0,0,0,20.56,14,14,0,0,0,19.59,0,16,16,0,0,0,0-20.56,12.86,12.86,0,0,0-9.8-4"/><path class="cls-1" d="M191.76,294.72h-2.91V263.39a2,2,0,0,0-2.08-2.08h-5a2.08,2.08,0,1,0,0,4.15h2.91v29.25h-2.9a2.08,2.08,0,1,0,0,4.15h10a2.08,2.08,0,1,0,0-4.15"/><path class="cls-1" d="M214,283.93h0c-1.41-.32-2.93-.54-4.4-.76-2.94-.44-6-.9-7.74-2a2.72,2.72,0,0,1-1.38-2.57c0-1.76,2.24-3.66,7.15-3.66a9.58,9.58,0,0,1,6.16,2.36,12.75,12.75,0,0,1,2,2v2a2.08,2.08,0,1,0,4.15,0v-8a2.08,2.08,0,1,0-4.15,0v.28a13.64,13.64,0,0,0-8.15-2.86c-7.42,0-11.3,3.93-11.3,7.81,0,5,3.62,6.64,6.79,7.57,1.65.42,3.45.68,5.2.94,2.66.39,5.41.8,7,1.67a2.28,2.28,0,0,1,1.46,2.28c0,2.56-2.93,4.15-7.65,4.15a10.23,10.23,0,0,1-6.66-2.31,11.16,11.16,0,0,1-2-2v-2.06a2.08,2.08,0,0,0-4.15,0v8a2.08,2.08,0,1,0,4.15,0v-.31a15,15,0,0,0,8.64,2.89c8.7,0,11.8-4.29,11.8-8.31,0-5.48-5.2-6.72-6.91-7.13"/><polygon class="cls-1" points="15.55 338.01 17.74 338.01 17.74 331.86 24.77 331.86 24.77 329.85 17.74 329.85 17.74 326 24.91 326 24.91 324 15.55 324 15.55 338.01"/><path class="cls-1" d="M43.22,323.77a7.25,7.25,0,1,0,7,7.24A6.87,6.87,0,0,0,43.22,323.77ZM47.93,331c0,3.08-1.94,5.23-4.71,5.23s-4.71-2.1-4.71-5.23,1.89-5.24,4.71-5.24S47.93,327.88,47.93,331Z"/><path class="cls-1" d="M71.77,332.47c0,2.4-1.3,3.78-3.57,3.78s-3.58-1.38-3.58-3.78V324H62.43v8.52c0,3.65,2.1,5.74,5.76,5.74s5.76-2.1,5.76-5.76V324H71.77Z"/><polygon class="cls-1" points="96.23 334.03 88.83 324 86.73 324 86.73 338.01 88.92 338.01 88.92 327.76 96.34 337.91 96.41 338.01 98.42 338.01 98.42 324 96.23 324 96.23 334.03"/><path class="cls-1" d="M116.06,324h-4.87v14h4.87a7,7,0,1,0,0-14Zm4.93,7a4.7,4.7,0,0,1-4.93,5h-2.68V326h2.68A4.71,4.71,0,0,1,121,331Z"/><path class="cls-1" d="M141.28,324h-2.43l-5.63,14h2.47l1.2-3h6.38l1.2,3h2.47l-5.59-13.86Zm1.28,9h-5l2.5-6.33Z"/><polygon class="cls-1" points="155.9 326 160.17 326 160.17 338.01 162.36 338.01 162.36 326 166.66 326 166.66 324 155.9 324 155.9 326"/><rect class="cls-1" x="178.5" y="323.99" width="2.19" height="14.02"/><path class="cls-1" d="M199.87,323.77a7.25,7.25,0,1,0,7,7.24A6.87,6.87,0,0,0,199.87,323.77Zm4.71,7.24c0,3.08-1.94,5.23-4.71,5.23s-4.71-2.1-4.71-5.23,1.89-5.24,4.71-5.24S204.58,327.88,204.58,331Z"/><polygon class="cls-1" points="228.58 334.03 221.18 324 219.08 324 219.08 338.01 221.26 338.01 221.26 327.76 228.69 337.91 228.76 338.01 230.76 338.01 230.76 324 228.58 324 228.58 334.03"/><path class="cls-1" d="M240.22,332.55a4.39,4.39,0,1,1,4.39-4.39A4.4,4.4,0,0,1,240.22,332.55Zm0-8.13a3.73,3.73,0,1,0,3.73,3.73A3.72,3.72,0,0,0,240.22,324.42Zm1.2,6.26-1.31-2h-.87v2h-.7v-5h2.05a1.57,1.57,0,0,1,1.64,1.53,1.47,1.47,0,0,1-1.29,1.49l1.35,2Zm-.83-4.42h-1.35v1.78h1.35a.89.89,0,1,0,0-1.78Z"/></g></g></svg>