<svg xmlns="http://www.w3.org/2000/svg" viewBox="0 0 417.22 175.12"><defs><style>.cls-1{fill:#005cb9;}</style></defs><title>Asset 1</title><g id="Layer_2" data-name="Layer 2"><g id="Layer_1-2" data-name="Layer 1"><path class="cls-1" d="M188.78,78.55a18,18,0,0,0,13.41-5.37,2,2,0,0,0,0-2.93,2,2,0,0,0-2.95,0,14,14,0,0,1-10.46,4.12,12.92,12.92,0,0,1-10-4.2,15.75,15.75,0,0,1-3.85-10.92,16.25,16.25,0,0,1,3.72-10.91,11.46,11.46,0,0,1,9.16-4.22,13.18,13.18,0,0,1,7.81,2.65,16.25,16.25,0,0,1,2.58,2.26v3a2.08,2.08,0,1,0,4.15,0V42.56a2.08,2.08,0,1,0-4.15,0v.86A17.25,17.25,0,0,0,187.78,40a15.54,15.54,0,0,0-12.32,5.59c-3.13,3.56-4.72,8.16-4.72,13.69a20.18,20.18,0,0,0,4.93,13.81A16.94,16.94,0,0,0,188.78,78.55Z"/><path class="cls-1" d="M219.25,78.55a12.86,12.86,0,0,0,9.79-4,14.49,14.49,0,0,0,3.75-10.28A14.5,14.5,0,0,0,229,54a14,14,0,0,0-19.59,0,14.5,14.5,0,0,0-3.75,10.28,14.49,14.49,0,0,0,3.75,10.28A12.86,12.86,0,0,0,219.25,78.55Zm-6.81-21.72a9.89,9.89,0,0,1,13.61,0,10.53,10.53,0,0,1,2.59,7.42,10.58,10.58,0,0,1-2.58,7.46,10.08,10.08,0,0,1-13.67,0,10.47,10.47,0,0,1-2.53-7.47A10.54,10.54,0,0,1,212.45,56.83Z"/><path class="cls-1" d="M237.46,73.89a2.08,2.08,0,1,0,0,4.15h10.47a2.08,2.08,0,0,0,0-4.15h-3.41v-13a12.87,12.87,0,0,1,11.13-6.76H256v4.15a2.08,2.08,0,1,0,4.15,0V52A2,2,0,0,0,258.1,50h-2.44a16.34,16.34,0,0,0-11.14,4.41V52.54a2,2,0,0,0-2.08-2.08h-5a2.08,2.08,0,0,0,0,4.15h2.91V73.89Z"/><path class="cls-1" d="M286,74.54a14.48,14.48,0,0,0,3.75-10.28A14.5,14.5,0,0,0,286,54a14,14,0,0,0-19.59,0,14.5,14.5,0,0,0-3.75,10.28,14.49,14.49,0,0,0,3.75,10.28,14,14,0,0,0,19.59,0ZM266.81,64.25a10.54,10.54,0,0,1,2.59-7.42,9.89,9.89,0,0,1,13.61,0,10.53,10.53,0,0,1,2.59,7.42A10.6,10.6,0,0,1,283,71.72a10.08,10.08,0,0,1-13.67,0A10.47,10.47,0,0,1,266.81,64.25Z"/><path class="cls-1" d="M323.83,73.9h-2.91V61.26c0-7.18-4-11.3-11.05-11.3a12.42,12.42,0,0,0-8.4,3.44v-.86a2,2,0,0,0-2.08-2.08h-5a2.08,2.08,0,0,0,0,4.15h2.91V73.9h-2.9a2.08,2.08,0,1,0,0,4.15h9.47a2.08,2.08,0,1,0,0-4.15h-2.41v-14a15.75,15.75,0,0,1,2.2-2.77,8.83,8.83,0,0,1,6.19-3c4.58,0,6.9,2.4,6.9,7.15V73.9h-2.41a2.08,2.08,0,0,0,0,4.15h9.48a2.08,2.08,0,1,0,0-4.15Z"/><path class="cls-1" d="M338.45,60.93c-6.65,0-11.3,3.62-11.3,8.81,0,5.35,4,8.81,10.3,8.81a12.3,12.3,0,0,0,6.23-1.64,17.58,17.58,0,0,0,2.42-1.75V76A2,2,0,0,0,348.17,78h5a2.08,2.08,0,0,0,0-4.15h-2.91V59.52a8.87,8.87,0,0,0-3-6.81A10.75,10.75,0,0,0,339.64,50a15.43,15.43,0,0,0-9.8,3.19,1.93,1.93,0,0,0-.83,1.3,2,2,0,0,0,.38,1.48,1.92,1.92,0,0,0,1.31.93,2.09,2.09,0,0,0,1.68-.49,11.85,11.85,0,0,1,7.26-2.26c3.74,0,6.45,2.27,6.45,5.4v1.42Zm7.65,7.71a13.63,13.63,0,0,1-2.15,2.8,8.94,8.94,0,0,1-6.49,3c-3.91,0-6.15-1.7-6.15-4.65s2.61-4.65,7.15-4.65h7.65Z"/><path class="cls-1" d="M378.31,76A2,2,0,0,0,380.38,78h5a2.08,2.08,0,1,0,0-4.15h-2.91V42.56a2,2,0,0,0-2.08-2.08H374.9a2.08,2.08,0,0,0,0,4.16h3.41v5.81h-6.14c-9.12,0-14.79,5.19-14.79,13.54,0,9,4.71,14.54,12.3,14.54a12.28,12.28,0,0,0,6.21-1.63,16,16,0,0,0,2.43-1.74Zm-2.15-4.53a8.94,8.94,0,0,1-6.49,3c-5.1,0-8.15-3.89-8.15-10.39,0-6.05,3.78-9.39,10.64-9.39h6.15v14A13.7,13.7,0,0,1,376.15,71.44Z"/><path class="cls-1" d="M413.47,54a14,14,0,0,0-19.59,0,14.49,14.49,0,0,0-3.75,10.28,14.48,14.48,0,0,0,3.75,10.28,14,14,0,0,0,19.59,0,14.48,14.48,0,0,0,3.75-10.28A14.5,14.5,0,0,0,413.47,54Zm-3,17.74a10.08,10.08,0,0,1-13.67,0,10.46,10.46,0,0,1-2.53-7.47,10.54,10.54,0,0,1,2.59-7.42,9.89,9.89,0,0,1,13.61,0,10.53,10.53,0,0,1,2.59,7.42A10.58,10.58,0,0,1,410.49,71.71Z"/><path class="cls-1" d="M200.95,122.13c0-3.71-1.71-6.34-5.22-8.07a47.41,47.41,0,0,0-8.59-2.89,48.83,48.83,0,0,1-7.06-2.26c-1.33-.6-3.55-2-3.55-4.47,0-3.7,3.23-5.9,8.64-5.9a13.69,13.69,0,0,1,7.81,2.65,16.17,16.17,0,0,1,2.58,2.26v3a2.08,2.08,0,1,0,4.15,0V96.95a2.08,2.08,0,1,0-4.15,0v.89a17.84,17.84,0,0,0-10.39-3.47c-11.55,0-12.8,7-12.8,10.05,0,3.7,1.71,6.34,5.22,8.07a47.77,47.77,0,0,0,8.6,2.9,48.36,48.36,0,0,1,7.06,2.26c1.33.6,3.55,2,3.55,4.47,0,4.16-3.51,6.65-9.39,6.65a14.82,14.82,0,0,1-8.31-2.53,13.17,13.17,0,0,1-2.58-2.13v-3.23a2.08,2.08,0,0,0-4.15,0v9.47a2.08,2.08,0,1,0,4.15,0v-.9a18.76,18.76,0,0,0,10.89,3.48C195.76,132.93,200.95,128.79,200.95,122.13Z"/><path class="cls-1" d="M229.66,127.37a2.18,2.18,0,0,0-.62-1.6,2,2,0,0,0-3-.21h0a10.9,10.9,0,0,1-8.2,3.21,8.24,8.24,0,0,1-6.39-2.65,10.79,10.79,0,0,1-2.5-7.49,11.21,11.21,0,0,1,2.37-7.41,7.27,7.27,0,0,1,5.78-2.73,9.6,9.6,0,0,1,6.14,2.34,14.24,14.24,0,0,1,2,2v2a2.08,2.08,0,0,0,4.15,0v-8a2.08,2.08,0,1,0-4.15,0v.25a13,13,0,0,0-8.14-2.83,11.18,11.18,0,0,0-8.83,4.1,16.6,16.6,0,0,0,.11,20.46,12.15,12.15,0,0,0,9.47,4,15.36,15.36,0,0,0,11-4.16A2,2,0,0,0,229.66,127.37Z"/><path class="cls-1" d="M263.36,128.28h-2.91V115.65c0-7.18-4-11.3-11.05-11.3a12.4,12.4,0,0,0-8.39,3.44V96.95a2,2,0,0,0-2.08-2.08h-5a2.08,2.08,0,0,0,0,4.15h2.91v29.25h-2.91a2.08,2.08,0,0,0,0,4.15h9.48a2.08,2.08,0,0,0,0-4.15H241v-14a18.23,18.23,0,0,1,2.2-2.78,8.83,8.83,0,0,1,6.19-3c4.58,0,6.9,2.41,6.9,7.15v12.63h-2.41a2.08,2.08,0,1,0,0,4.15h9.47a2.08,2.08,0,1,0,0-4.15Z"/><path class="cls-1" d="M290.26,108.35a14,14,0,0,0-19.59,0,16,16,0,0,0,0,20.56,14,14,0,0,0,19.59,0,16,16,0,0,0,0-20.56Zm-3,17.75a10.08,10.08,0,0,1-13.67,0,12.11,12.11,0,0,1,.05-14.89,9.88,9.88,0,0,1,13.61,0,12,12,0,0,1,0,14.89Z"/><path class="cls-1" d="M324.78,118.64A14.49,14.49,0,0,0,321,108.35a14,14,0,0,0-19.59,0,16,16,0,0,0,0,20.56,14,14,0,0,0,19.59,0A14.5,14.5,0,0,0,324.78,118.64Zm-6.73,7.46a10.08,10.08,0,0,1-13.67,0,12.11,12.11,0,0,1,.05-14.89,9.88,9.88,0,0,1,13.61,0,12,12,0,0,1,0,14.89Z"/><path class="cls-1" d="M338.62,128.28h-2.91V96.95a2,2,0,0,0-2.08-2.08h-5a2.08,2.08,0,1,0,0,4.15h2.91v29.25h-2.9a2.08,2.08,0,1,0,0,4.15h10a2.08,2.08,0,1,0,0-4.15Z"/><path class="cls-1" d="M360.9,117.49h0c-1.41-.32-2.93-.54-4.4-.76-2.94-.44-6-.9-7.74-2a2.72,2.72,0,0,1-1.38-2.57c0-1.76,2.24-3.66,7.15-3.66a9.58,9.58,0,0,1,6.16,2.36,12.76,12.76,0,0,1,2,2v2a2.08,2.08,0,1,0,4.15,0v-8a2.08,2.08,0,1,0-4.15,0v.28a13.64,13.64,0,0,0-8.15-2.86c-7.42,0-11.3,3.93-11.3,7.81,0,5,3.62,6.64,6.79,7.57,1.65.42,3.45.68,5.2.94,2.66.39,5.41.8,7,1.67a2.28,2.28,0,0,1,1.46,2.28c0,2.56-2.93,4.15-7.65,4.15a10.23,10.23,0,0,1-6.66-2.31,11.16,11.16,0,0,1-2-2v-2.06a2.08,2.08,0,0,0-4.15,0v8a2.08,2.08,0,1,0,4.15,0V130a15,15,0,0,0,8.64,2.89c8.7,0,11.8-4.29,11.8-8.31C367.82,119.14,362.61,117.9,360.9,117.49Z"/><path class="cls-1" d="M119.54,65.29c0,.3,0,.62,0,.94s0,.64,0,.94Z"/><path class="cls-1" d="M39.69,78.74a2.86,2.86,0,0,0,1.74-3.53l-.68-1.83A4.85,4.85,0,0,1,41.11,69l.83-1.15A2.51,2.51,0,0,0,42.07,65L41,63.12a5,5,0,0,1-.19-4.31l.47-1.12c.64-1.54-.34-3.09-2.06-3.78a29.93,29.93,0,0,0-4.75,3.65l.26,17S38.21,78.18,39.69,78.74Z"/><path class="cls-1" d="M43.12,57.26l-.47,1.29a4.71,4.71,0,0,0,.05,3.32L43.85,64a5.28,5.28,0,0,1-.21,5.3l-.89,1.42A4,4,0,0,0,42.61,74a8,8,0,0,1,.73,2.24,3.25,3.25,0,0,1-1.08,2.67h73.4c3.1,0,3.8-7.6,3.87-12.65s-.77-12.65-3.87-12.65H41.85C42.82,54.55,43.57,56,43.12,57.26Z"/><path class="cls-1" d="M133.42,103.15V87.84c-2.19-2-5.78-5-6.82-5h-1.32v25.3h1.32C127.56,108.15,131.21,105.08,133.42,103.15Z"/><path class="cls-1" d="M46,24.57c.89,3.48,3.19,14.3,3.19,14.3.17.66.27,1.13.95,1.13,0,0,13.61-1.22,25.46-1.22,12.18,0,25.06,1.22,25.06,1.22.68,0,.6-.46.76-1.13,0,0,2.22-11.05,3.6-16.5s3.25-10.69,3.25-10.69c.3-1.21.47-2.82-2.05-1.72L89.74,17.37a1.49,1.49,0,0,1-1.82-.48s-4.8-6.54-6.7-9.05c-1-1.36-4.68-6.64-4.68-6.64-1.13-1.63-1.37-1.53-2.4,0,0,0-4.8,6.6-6.62,8.94-1.2,1.55-5.07,6.79-5.07,6.79a1.49,1.49,0,0,1-1.81.47s-5.72-3.09-8-4.13C50.87,12.43,44.45,10,44.45,10c-2.49-1.12-2.37.51-2.06,1.72C42.39,11.71,44.36,18,46,24.57Z"/><polygon class="cls-1" points="32.67 58.84 25.95 65.37 32.67 72.97 32.67 58.84"/><polygon class="cls-1" points="135.13 89.33 135.13 101.67 141.09 95.43 135.13 89.33"/><path class="cls-1" d="M119.89,65.34c0,.3,0,.62,0,.95s0,.65,0,.95Z"/><path class="cls-1" d="M16.74,112.52H3.88c-3.3,0-3.88,8.62-3.88,13.6v.38c0,5,.58,13.6,3.88,13.6H16.74Z"/><path class="cls-1" d="M72.38,156.77h3.16a30.41,30.41,0,0,1-1.69-2.64C73.42,155,72.92,155.88,72.38,156.77Z"/><path class="cls-1" d="M112.39,171.45h14.7V144.13H105.93C109.18,152,112.12,161.31,112.39,171.45Z"/><path class="cls-1" d="M88.42,150.33c-2.07-1.39-8.92-3.19-15.54-3-6.08.22-12,2.38-13.78,3.77-5.72,4.38-8.43,10.71-6.95,12.54.77.93,5.11,1.8,6.65,1.84a9.84,9.84,0,0,0,7.88-3.26l.12-.12c.27-.28.55-.58.83-.9s.54-.65.82-1l0,0c.28-.35.56-.71.84-1.09h0c.57-.76,1.12-1.56,1.65-2.37h0l.45-.71.07-.11.36-.61.1-.17.3-.54.11-.21.26-.49.12-.24.22-.46L73,153l.19-.44.1-.24c.06-.15.11-.3.16-.45l.07-.2c.07-.21.13-.42.19-.62.06.2.14.41.22.62l.09.21.19.44.12.25.21.42.14.27.24.43.15.27.27.45.16.25.32.49.14.21.41.59.08.12a42.59,42.59,0,0,0,3.22,4l.1.11.76.8.63.62.05,0c3,2.81,5.61,3.31,8.4,3.07,1.53-.13,5.81-1.26,6.52-2.24C97.54,160.51,94.42,154.36,88.42,150.33Z"/><path class="cls-1" d="M85.2,132.5a1,1,0,0,0-1.42-.12l-5.22,4.38a8.67,8.67,0,0,0-4.67-1.46,8.2,8.2,0,0,0-4.6,1.49L64,132.37a1,1,0,0,0-1.29,1.55l5,4.17a12.39,12.39,0,0,0-3.6,8.41A37.72,37.72,0,0,1,73.55,145a64.45,64.45,0,0,1,10.54,1.45,12.08,12.08,0,0,0-3.9-8.43l4.89-4.1A1,1,0,0,0,85.2,132.5Z"/><rect class="cls-1" x="25.94" y="82.84" width="97.27" height="25.3"/><path class="cls-1" d="M144.42,112.52H27.91V140.1H44.39c7-12.65,17.74-20.45,29.76-20.45s22.74,7.8,29.76,20.45h40.51c3.3,0,3.88-8.61,3.88-13.6v-.38C148.3,121.14,147.72,112.52,144.42,112.52Z"/><path class="cls-1" d="M138.2,144.13h-8.47v27.32h8.47c3.3,0,3.88-9.3,3.88-14.68v-.41C142.07,151,141.49,144.13,138.2,144.13Z"/><rect class="cls-1" x="19.08" y="112.77" width="6.19" height="27.54"/><path class="cls-1" d="M13.06,108.14H23.64V82.84H13.06c-3.1,0-3.8,7.6-3.87,12.65S10,108.14,13.06,108.14Z"/><path class="cls-1" d="M9.19,94.55v1.89c0-.3,0-.62,0-.94S9.19,94.85,9.19,94.55Z"/><path class="cls-1" d="M6.16,156.49v.41c0,5.38.58,14.68,3.88,14.68H35.85c.27-10.14,3.36-19.42,6.61-27.32H10C6.74,144.26,6.16,151.11,6.16,156.49Z"/><path class="cls-1" d="M68.54,162c-.31.36-.62.69-.93,1H81.07c-.45-.38-.91-.8-1.36-1.26-.77-.79-1.57-1.68-2.36-2.64H70.8C70.05,160.18,69.28,161.17,68.54,162Z"/><path class="cls-1" d="M74.19,175.12a9.73,9.73,0,0,0,9.9-9.54H64.28A9.73,9.73,0,0,0,74.19,175.12Z"/></g></g></svg>