<svg xmlns="http://www.w3.org/2000/svg" viewBox="0 0 148.3 175.12"><defs><style>.cls-1{fill:#0072bc;}</style></defs><title>Asset 1</title><g id="Layer_2" data-name="Layer 2"><g id="Layer_1-2" data-name="Layer 1"><path class="cls-1" d="M142.07,156.77v-.41c0-5.38-.58-12.23-3.88-12.23h-8.47v27.32h8.47C141.49,171.45,142.07,162.15,142.07,156.77Z"/><path class="cls-1" d="M85.2,132.5a1,1,0,0,0-1.42-.12l-5.22,4.38a8.67,8.67,0,0,0-4.67-1.46,8.2,8.2,0,0,0-4.6,1.49L64,132.37a1,1,0,0,0-1.29,1.55l5,4.17a12.39,12.39,0,0,0-3.6,8.41A37.72,37.72,0,0,1,73.55,145a64.44,64.44,0,0,1,10.54,1.45,12.08,12.08,0,0,0-3.9-8.43l4.89-4.1A1,1,0,0,0,85.2,132.5Z"/><path class="cls-1" d="M127.08,171.45V144.13H105.93c3.25,7.9,6.19,17.18,6.46,27.32Z"/><path class="cls-1" d="M84.09,165.58H64.29a9.91,9.91,0,0,0,19.81,0Z"/><path class="cls-1" d="M52.15,163.69c.77.93,5.11,1.8,6.65,1.84a9.84,9.84,0,0,0,7.88-3.26l.12-.12c.27-.28.55-.58.83-.9s.54-.65.82-1l0,0c.28-.35.56-.71.84-1.09h0c.57-.76,1.12-1.56,1.65-2.37h0l.45-.71.07-.11.36-.61.1-.17.3-.54.11-.21.26-.49.12-.24.22-.46L73,153l.19-.44.1-.24c.06-.15.11-.3.16-.45l.07-.2c.07-.21.13-.42.19-.62.06.2.14.41.22.62l.09.21.19.44.12.25.21.42.14.27.24.43.15.27.27.45.16.25.32.49.14.21.41.59.08.12a42.59,42.59,0,0,0,3.22,4l.1.11.76.8.63.62.05,0c3,2.81,5.61,3.31,8.4,3.07,1.53-.13,5.81-1.26,6.52-2.24,1.36-1.92-1.76-8.07-7.75-12.1-2.07-1.39-8.92-3.19-15.54-3-6.08.22-12,2.38-13.78,3.77C53.37,155.53,50.66,161.85,52.15,163.69Z"/><path class="cls-1" d="M72.38,156.77h3.16a30.41,30.41,0,0,1-1.69-2.64C73.42,155,72.92,155.88,72.38,156.77Z"/><path class="cls-1" d="M68.54,162c-.31.36-.62.69-.93,1H81.07c-.45-.38-.91-.8-1.36-1.26-.77-.79-1.57-1.68-2.36-2.64H70.8C70.05,160.18,69.28,161.17,68.54,162Z"/><rect class="cls-1" x="19.08" y="112.77" width="6.19" height="27.54"/><rect class="cls-1" x="25.94" y="82.84" width="97.27" height="25.3"/><polygon class="cls-1" points="32.67 58.84 25.95 65.37 32.67 72.97 32.67 58.84"/><path class="cls-1" d="M27.91,140.1H44.39c7-12.65,17.74-20.45,29.76-20.45s22.74,7.8,29.76,20.45h40.51c3.3,0,3.88-8.61,3.88-13.6v-.38c0-5-.58-13.6-3.88-13.6H27.91Z"/><path class="cls-1" d="M39.69,78.74a2.86,2.86,0,0,0,1.74-3.53l-.68-1.83A4.85,4.85,0,0,1,41.11,69l.83-1.15A2.51,2.51,0,0,0,42.07,65L41,63.12a5,5,0,0,1-.19-4.31l.47-1.12c.64-1.54-.34-3.09-2.06-3.78a29.93,29.93,0,0,0-4.75,3.65l.26,17S38.21,78.18,39.69,78.74Z"/><path class="cls-1" d="M3.88,140.1H16.74V112.52H3.88c-3.3,0-3.88,8.62-3.88,13.6v.38C0,131.49.58,140.1,3.88,140.1Z"/><path class="cls-1" d="M13.06,108.14H23.64V82.84H13.06c-3.1,0-3.8,7.6-3.87,12.65S10,108.14,13.06,108.14Z"/><path class="cls-1" d="M9.19,94.55v1.89c0-.3,0-.62,0-.94S9.19,94.85,9.19,94.55Z"/><path class="cls-1" d="M43.12,57.26l-.47,1.29a4.71,4.71,0,0,0,.05,3.32L43.85,64a5.28,5.28,0,0,1-.21,5.3l-.89,1.42A4,4,0,0,0,42.61,74a8,8,0,0,1,.73,2.24,3.25,3.25,0,0,1-1.08,2.67h73.4c3.1,0,3.8-7.6,3.87-12.65s-.77-12.65-3.87-12.65H41.85C42.82,54.55,43.57,56,43.12,57.26Z"/><polygon class="cls-1" points="135.13 89.33 135.13 101.67 141.09 95.43 135.13 89.33"/><path class="cls-1" d="M6.16,156.49v.41c0,5.38.58,14.68,3.88,14.68H35.85c.27-10.14,3.36-19.42,6.61-27.32H10C6.74,144.26,6.16,151.11,6.16,156.49Z"/><path class="cls-1" d="M133.42,103.15V87.84c-2.19-2-5.78-5-6.82-5h-1.32v25.3h1.32C127.56,108.15,131.21,105.08,133.42,103.15Z"/><path class="cls-1" d="M119.89,65.34c0,.3,0,.62,0,.95s0,.65,0,.95Z"/><path class="cls-1" d="M46,24.57c.89,3.48,3.19,14.3,3.19,14.3.17.66.27,1.13.95,1.13,0,0,13.61-1.22,25.46-1.22,12.18,0,25.06,1.22,25.06,1.22.68,0,.6-.46.76-1.13,0,0,2.22-11.05,3.6-16.5s3.25-10.69,3.25-10.69c.3-1.21.47-2.82-2.05-1.72L89.74,17.37a1.49,1.49,0,0,1-1.82-.48s-4.8-6.54-6.7-9.05c-1-1.36-4.68-6.64-4.68-6.64-1.13-1.63-1.37-1.53-2.4,0,0,0-4.8,6.6-6.62,8.94-1.2,1.55-5.07,6.79-5.07,6.79a1.49,1.49,0,0,1-1.81.47s-5.72-3.09-8-4.13C50.87,12.43,44.45,10,44.45,10c-2.49-1.12-2.37.51-2.06,1.72C42.39,11.71,44.36,18,46,24.57Z"/><path class="cls-1" d="M119.54,65.29c0,.3,0,.62,0,.94s0,.64,0,.94Z"/></g></g></svg>