<svg xmlns="http://www.w3.org/2000/svg" viewBox="0 0 246.47 338.43"><defs><style>.cls-1{fill:#0072bc;}</style></defs><title>Asset 2</title><g id="Layer_2" data-name="Layer 2"><g id="Layer_1-2" data-name="Layer 1"><path class="cls-1" d="M31.44,239.61a2,2,0,0,0,0-2.93,2,2,0,0,0-2.95,0A14,14,0,0,1,18,240.83a12.92,12.92,0,0,1-10-4.2,15.75,15.75,0,0,1-3.85-10.92,16.25,16.25,0,0,1,3.72-10.91A11.46,11.46,0,0,1,17,210.58a13.18,13.18,0,0,1,7.81,2.65,16.26,16.26,0,0,1,2.58,2.26v3a2.08,2.08,0,1,0,4.15,0V209a2.08,2.08,0,1,0-4.15,0v.86A17.25,17.25,0,0,0,17,206.43,15.54,15.54,0,0,0,4.72,212C1.59,215.58,0,220.18,0,225.71a20.18,20.18,0,0,0,4.93,13.81A16.94,16.94,0,0,0,18,245,18,18,0,0,0,31.44,239.61Z"/><path class="cls-1" d="M48.5,245a12.85,12.85,0,0,0,9.79-4,16,16,0,0,0,0-20.56,12.87,12.87,0,0,0-9.8-4,12.86,12.86,0,0,0-9.79,4,16,16,0,0,0,0,20.56A12.86,12.86,0,0,0,48.5,245ZM41.7,223.27a8.78,8.78,0,0,1,6.81-2.71,8.77,8.77,0,0,1,6.81,2.71,12,12,0,0,1,0,14.89,9,9,0,0,1-6.82,2.68,9.07,9.07,0,0,1-6.86-2.67,12.12,12.12,0,0,1,.05-14.89Z"/><path class="cls-1" d="M85.28,224.71a2.08,2.08,0,1,0,4.15,0v-6.23a2,2,0,0,0-2.08-2.08H84.91a16.34,16.34,0,0,0-11.14,4.41V219a2,2,0,0,0-2.08-2.08h-5a2.08,2.08,0,1,0,0,4.15h2.91v19.28h-2.9a2.08,2.08,0,1,0,0,4.15H77.18a2.08,2.08,0,0,0,0-4.15H73.77v-13a12.87,12.87,0,0,1,11.13-6.76h.37Z"/><path class="cls-1" d="M91.91,230.7A14.49,14.49,0,0,0,95.66,241a14,14,0,0,0,19.59,0,16,16,0,0,0,0-20.56,14,14,0,0,0-19.59,0A14.5,14.5,0,0,0,91.91,230.7Zm6.74-7.42a9.89,9.89,0,0,1,13.61,0,12,12,0,0,1,0,14.89,10.08,10.08,0,0,1-13.67,0,12.11,12.11,0,0,1,.05-14.89Z"/><path class="cls-1" d="M143.61,240.34a2.08,2.08,0,1,0,0,4.15h9.48a2.08,2.08,0,1,0,0-4.15h-2.91V227.71c0-7.18-4-11.3-11.05-11.3a12.42,12.42,0,0,0-8.4,3.44V219a2,2,0,0,0-2.08-2.08h-5a2.08,2.08,0,0,0,0,4.16h2.91v19.28h-2.9a2.08,2.08,0,1,0,0,4.15h9.47a2.08,2.08,0,1,0,0-4.15h-2.41v-14a15.75,15.75,0,0,1,2.2-2.77,8.83,8.83,0,0,1,6.19-3c4.58,0,6.9,2.4,6.9,7.15v12.63Z"/><path class="cls-1" d="M177.42,244.49h5a2.08,2.08,0,0,0,0-4.15H179.5V226a8.87,8.87,0,0,0-3-6.81,10.75,10.75,0,0,0-7.64-2.75,15.43,15.43,0,0,0-9.8,3.19,1.93,1.93,0,0,0-.83,1.3,2,2,0,0,0,.38,1.48,1.92,1.92,0,0,0,1.31.93,2.09,2.09,0,0,0,1.68-.49,11.85,11.85,0,0,1,7.26-2.26c3.74,0,6.45,2.27,6.45,5.4v1.42H167.7c-6.65,0-11.3,3.62-11.3,8.81,0,5.35,4,8.81,10.3,8.81a12.3,12.3,0,0,0,6.23-1.64,17.59,17.59,0,0,0,2.42-1.75v.82A2,2,0,0,0,177.42,244.49Zm-4.23-6.61a8.94,8.94,0,0,1-6.49,3c-3.91,0-6.15-1.7-6.15-4.65s2.61-4.65,7.15-4.65h7.65v3.55A13.63,13.63,0,0,1,173.19,237.88Z"/><path class="cls-1" d="M201.41,216.9c-9.12,0-14.79,5.19-14.79,13.54,0,9,4.71,14.54,12.3,14.54a12.28,12.28,0,0,0,6.21-1.63,16,16,0,0,0,2.43-1.74v.8a2,2,0,0,0,2.08,2.07h5a2.08,2.08,0,1,0,0-4.15h-2.91V209a2,2,0,0,0-2.08-2.08h-5.48a2.08,2.08,0,0,0,0,4.16h3.41v5.81Zm6.15,18.18a13.7,13.7,0,0,1-2.15,2.8,8.94,8.94,0,0,1-6.49,3c-5.1,0-8.15-3.89-8.15-10.39,0-6.05,3.78-9.39,10.64-9.39h6.15Z"/><path class="cls-1" d="M242.72,220.41a14,14,0,0,0-19.59,0,16,16,0,0,0,0,20.56,14,14,0,0,0,19.59,0,16,16,0,0,0,0-20.56Zm-3,17.74a10.08,10.08,0,0,1-13.67,0,12.11,12.11,0,0,1,.05-14.89,9.89,9.89,0,0,1,13.61,0,12,12,0,0,1,0,14.89Z"/><path class="cls-1" d="M48.87,280.5a47.42,47.42,0,0,0-8.59-2.89,48.83,48.83,0,0,1-7.06-2.26c-1.33-.6-3.55-2-3.55-4.47,0-3.7,3.23-5.9,8.64-5.9a13.69,13.69,0,0,1,7.81,2.65,16.18,16.18,0,0,1,2.58,2.26v3a2.08,2.08,0,1,0,4.15,0v-9.47a2.08,2.08,0,1,0-4.15,0v.89a17.84,17.84,0,0,0-10.39-3.47c-11.55,0-12.8,7-12.8,10.05,0,3.7,1.71,6.34,5.22,8.07a47.75,47.75,0,0,0,8.6,2.9,48.36,48.36,0,0,1,7.06,2.26c1.33.6,3.55,2,3.55,4.47,0,4.16-3.51,6.65-9.39,6.65a14.82,14.82,0,0,1-8.31-2.53,13.17,13.17,0,0,1-2.58-2.13v-3.23a2.08,2.08,0,0,0-4.15,0v9.47a2.08,2.08,0,1,0,4.15,0v-.9a18.76,18.76,0,0,0,10.89,3.48c8.35,0,13.54-4.14,13.54-10.8C54.1,284.86,52.39,282.22,48.87,280.5Z"/><path class="cls-1" d="M79.22,292h0a10.9,10.9,0,0,1-8.2,3.21,8.24,8.24,0,0,1-6.39-2.65,10.79,10.79,0,0,1-2.5-7.49,11.21,11.21,0,0,1,2.37-7.41,7.27,7.27,0,0,1,5.78-2.73,9.6,9.6,0,0,1,6.14,2.34,14.25,14.25,0,0,1,2,2v2a2.08,2.08,0,0,0,4.15,0v-8a2.08,2.08,0,1,0-4.15,0v.25a13,13,0,0,0-8.14-2.83,11.18,11.18,0,0,0-8.83,4.1,16.6,16.6,0,0,0,.11,20.46,12.15,12.15,0,0,0,9.47,4,15.36,15.36,0,0,0,11-4.16,2,2,0,0,0,.74-1.4,2.18,2.18,0,0,0-.62-1.6A2,2,0,0,0,79.22,292Z"/><path class="cls-1" d="M118.58,296.8a2,2,0,0,0-2.08-2.08h-2.91V282.09c0-7.18-4-11.3-11.05-11.3a12.4,12.4,0,0,0-8.39,3.44V263.39a2,2,0,0,0-2.08-2.08h-5a2.08,2.08,0,0,0,0,4.15H90v29.25H87.08a2.08,2.08,0,1,0,0,4.15h9.48a2.08,2.08,0,0,0,0-4.15H94.15v-14a18.22,18.22,0,0,1,2.2-2.78,8.83,8.83,0,0,1,6.19-3c4.58,0,6.9,2.41,6.9,7.15v12.63H107a2.08,2.08,0,1,0,0,4.15h9.47A2,2,0,0,0,118.58,296.8Z"/><path class="cls-1" d="M133.61,270.79a12.86,12.86,0,0,0-9.8,4,16,16,0,0,0,0,20.56,14,14,0,0,0,19.59,0,16,16,0,0,0,0-20.56A12.86,12.86,0,0,0,133.61,270.79Zm6.82,21.76a10.08,10.08,0,0,1-13.67,0,12.11,12.11,0,0,1,.05-14.89,9.88,9.88,0,0,1,13.61,0,12,12,0,0,1,0,14.89Z"/><path class="cls-1" d="M164.38,270.79a12.86,12.86,0,0,0-9.8,4,16,16,0,0,0,0,20.56,14,14,0,0,0,19.59,0,16,16,0,0,0,0-20.56A12.86,12.86,0,0,0,164.38,270.79Zm6.82,21.76a10.08,10.08,0,0,1-13.67,0,12.11,12.11,0,0,1,.05-14.89,9.88,9.88,0,0,1,13.61,0,12,12,0,0,1,0,14.89Z"/><path class="cls-1" d="M193.84,296.8a2,2,0,0,0-2.08-2.08h-2.91V263.39a2,2,0,0,0-2.08-2.08h-5a2.08,2.08,0,1,0,0,4.15h2.91v29.25h-2.9a2.08,2.08,0,1,0,0,4.15h10A2,2,0,0,0,193.84,296.8Z"/><path class="cls-1" d="M214,283.93h0c-1.41-.32-2.93-.54-4.4-.76-2.94-.44-6-.9-7.74-2a2.72,2.72,0,0,1-1.38-2.57c0-1.76,2.24-3.66,7.15-3.66a9.58,9.58,0,0,1,6.16,2.36,12.75,12.75,0,0,1,2,2v2a2.08,2.08,0,1,0,4.15,0v-8a2.08,2.08,0,1,0-4.15,0v.28a13.64,13.64,0,0,0-8.15-2.86c-7.42,0-11.3,3.93-11.3,7.81,0,5,3.62,6.64,6.79,7.57,1.65.42,3.45.68,5.2.94,2.66.39,5.41.8,7,1.67a2.28,2.28,0,0,1,1.46,2.28c0,2.56-2.93,4.15-7.65,4.15a10.23,10.23,0,0,1-6.66-2.31,11.17,11.17,0,0,1-2-2v-2.06a2.08,2.08,0,0,0-4.15,0v8a2.08,2.08,0,1,0,4.15,0v-.31a15,15,0,0,0,8.64,2.89c8.7,0,11.8-4.29,11.8-8.31C221,285.58,215.76,284.34,214,283.93Z"/><polygon class="cls-1" points="14.63 338.19 16.82 338.19 16.82 332.03 23.85 332.03 23.85 330.03 16.82 330.03 16.82 326.18 23.99 326.18 23.99 324.17 14.63 324.17 14.63 338.19"/><path class="cls-1" d="M42.3,324a7.25,7.25,0,1,0,7,7.24A6.87,6.87,0,0,0,42.3,324ZM47,331.19c0,3.08-1.94,5.23-4.71,5.23s-4.71-2.1-4.71-5.23S39.49,326,42.3,326,47,328.06,47,331.19Z"/><path class="cls-1" d="M70.84,332.65c0,2.4-1.3,3.78-3.57,3.78s-3.58-1.38-3.58-3.78v-8.48H61.51v8.52c0,3.65,2.1,5.74,5.76,5.74s5.76-2.1,5.76-5.76v-8.5H70.84Z"/><polygon class="cls-1" points="95.31 334.21 87.91 324.17 85.81 324.17 85.81 338.19 87.99 338.19 87.99 327.94 95.41 338.09 95.49 338.19 97.49 338.19 97.49 324.17 95.31 324.17 95.31 334.21"/><path class="cls-1" d="M115.14,324.17h-4.87v14h4.87a7,7,0,1,0,0-14Zm4.93,7a4.7,4.7,0,0,1-4.93,5h-2.68v-10h2.68A4.71,4.71,0,0,1,120.07,331.19Z"/><path class="cls-1" d="M140.36,324.17h-2.43l-5.63,14h2.47l1.2-3h6.38l1.2,3H146l-5.59-13.86Zm1.28,9h-5l2.5-6.33Z"/><polygon class="cls-1" points="154.98 326.18 159.25 326.18 159.25 338.19 161.44 338.19 161.44 326.18 165.73 326.18 165.73 324.17 154.98 324.17 154.98 326.18"/><rect class="cls-1" x="177.58" y="324.17" width="2.19" height="14.02"/><path class="cls-1" d="M198.95,324a7.25,7.25,0,1,0,7,7.24A6.87,6.87,0,0,0,198.95,324Zm4.71,7.24c0,3.08-1.94,5.23-4.71,5.23s-4.71-2.1-4.71-5.23,1.89-5.24,4.71-5.24S203.66,328.06,203.66,331.19Z"/><polygon class="cls-1" points="227.65 334.21 220.26 324.17 218.15 324.17 218.15 338.19 220.34 338.19 220.34 327.94 227.76 338.09 227.84 338.19 229.84 338.19 229.84 324.17 227.65 324.17 227.65 334.21"/><path class="cls-1" d="M190.74,156.77v-.41c0-5.38-.58-12.23-3.88-12.23h-8.47v27.32h8.47C190.16,171.45,190.74,162.15,190.74,156.77Z"/><path class="cls-1" d="M133.86,132.5a1,1,0,0,0-1.42-.12l-5.22,4.38a8.67,8.67,0,0,0-4.67-1.46,8.2,8.2,0,0,0-4.6,1.49l-5.28-4.41a1,1,0,0,0-1.29,1.55l5,4.17a12.39,12.39,0,0,0-3.6,8.41,37.72,37.72,0,0,1,9.44-1.51,64.44,64.44,0,0,1,10.54,1.45,12.08,12.08,0,0,0-3.9-8.43l4.89-4.1A1,1,0,0,0,133.86,132.5Z"/><path class="cls-1" d="M175.75,171.45V144.13H154.59c3.25,7.9,6.19,17.18,6.46,27.32Z"/><path class="cls-1" d="M132.76,165.58H112.95a9.91,9.91,0,0,0,19.81,0Z"/><path class="cls-1" d="M100.81,163.69c.77.93,5.11,1.8,6.65,1.84a9.84,9.84,0,0,0,7.88-3.26l.12-.12c.27-.28.55-.58.83-.9s.54-.65.82-1l0,0c.28-.35.56-.71.84-1.09h0c.57-.76,1.12-1.56,1.65-2.37h0l.45-.71.07-.11.36-.61.1-.17.3-.54.11-.21.26-.49.12-.24.22-.46.11-.25.19-.44.1-.24c.06-.15.11-.3.16-.45l.07-.2c.07-.21.13-.42.19-.62.06.2.14.41.22.62l.09.21.19.44.12.25.21.42.14.27.24.43.15.27.27.45.16.25.32.49.14.21.41.59.08.12a42.59,42.59,0,0,0,3.22,4l.1.11.76.8.63.62.05,0c3,2.81,5.61,3.31,8.4,3.07,1.53-.13,5.81-1.26,6.52-2.24,1.36-1.92-1.76-8.07-7.75-12.1-2.07-1.39-8.92-3.19-15.54-3-6.08.22-12,2.38-13.78,3.77C102,155.53,99.32,161.85,100.81,163.69Z"/><path class="cls-1" d="M121,156.77h3.16a30.41,30.41,0,0,1-1.69-2.64C122.09,155,121.58,155.88,121,156.77Z"/><path class="cls-1" d="M117.2,162c-.31.36-.62.69-.93,1h13.46c-.45-.38-.91-.8-1.36-1.26-.77-.79-1.57-1.68-2.36-2.64h-6.55C118.72,160.18,117.94,161.17,117.2,162Z"/><rect class="cls-1" x="67.75" y="112.77" width="6.19" height="27.54"/><rect class="cls-1" x="74.61" y="82.84" width="97.27" height="25.3"/><polygon class="cls-1" points="81.34 58.84 74.61 65.37 81.34 72.97 81.34 58.84"/><path class="cls-1" d="M76.57,140.1H93c7-12.65,17.74-20.45,29.76-20.45s22.74,7.8,29.76,20.45h40.51c3.3,0,3.88-8.61,3.88-13.6v-.38c0-5-.58-13.6-3.88-13.6H76.57Z"/><path class="cls-1" d="M88.35,78.74a2.86,2.86,0,0,0,1.74-3.53l-.68-1.83A4.85,4.85,0,0,1,89.77,69l.83-1.15A2.51,2.51,0,0,0,90.73,65l-1.11-1.83a5,5,0,0,1-.19-4.31l.47-1.12c.64-1.54-.34-3.09-2.06-3.78a29.93,29.93,0,0,0-4.75,3.65l.26,17S86.88,78.18,88.35,78.74Z"/><path class="cls-1" d="M52.54,140.1H65.4V112.52H52.54c-3.3,0-3.88,8.62-3.88,13.6v.38C48.66,131.49,49.24,140.1,52.54,140.1Z"/><path class="cls-1" d="M61.73,108.14H72.3V82.84H61.73c-3.1,0-3.8,7.6-3.87,12.65S58.63,108.14,61.73,108.14Z"/><path class="cls-1" d="M57.85,94.55v1.89c0-.3,0-.62,0-.94S57.85,94.85,57.85,94.55Z"/><path class="cls-1" d="M91.79,57.26l-.47,1.29a4.71,4.71,0,0,0,.05,3.32L92.51,64a5.28,5.28,0,0,1-.21,5.3l-.89,1.42A4,4,0,0,0,91.28,74,8,8,0,0,1,92,76.21a3.25,3.25,0,0,1-1.08,2.67h73.4c3.1,0,3.8-7.6,3.87-12.65s-.77-12.65-3.87-12.65H90.51C91.48,54.55,92.23,56,91.79,57.26Z"/><polygon class="cls-1" points="183.8 89.33 183.8 101.67 189.76 95.43 183.8 89.33"/><path class="cls-1" d="M54.82,156.49v.41c0,5.38.58,14.68,3.88,14.68H84.51c.27-10.14,3.36-19.42,6.61-27.32H58.7C55.4,144.26,54.82,151.11,54.82,156.49Z"/><path class="cls-1" d="M182.08,103.15V87.84c-2.19-2-5.78-5-6.82-5h-1.32v25.3h1.32C176.23,108.15,179.88,105.08,182.08,103.15Z"/><path class="cls-1" d="M168.56,65.34c0,.3,0,.62,0,.95s0,.65,0,.95Z"/><path class="cls-1" d="M94.71,24.57c.89,3.48,3.19,14.3,3.19,14.3.17.66.27,1.13.95,1.13,0,0,13.61-1.22,25.46-1.22,12.18,0,25.06,1.22,25.06,1.22.68,0,.6-.46.76-1.13,0,0,2.22-11.05,3.6-16.5S157,11.68,157,11.68c.3-1.21.47-2.82-2.05-1.72l-16.53,7.41a1.49,1.49,0,0,1-1.82-.48s-4.8-6.54-6.7-9.05c-1-1.36-4.68-6.64-4.68-6.64-1.13-1.63-1.37-1.53-2.4,0,0,0-4.8,6.6-6.62,8.94-1.2,1.55-5.07,6.79-5.07,6.79a1.49,1.49,0,0,1-1.81.47s-5.72-3.09-8-4.13C99.53,12.43,93.11,10,93.11,10c-2.49-1.12-2.37.51-2.06,1.72C91.05,11.71,93,18,94.71,24.57Z"/><path class="cls-1" d="M168.2,65.29c0,.3,0,.62,0,.94s0,.64,0,.94Z"/><path class="cls-1" d="M239.3,332.73a4.39,4.39,0,1,1,4.39-4.39A4.4,4.4,0,0,1,239.3,332.73Zm0-8.13a3.73,3.73,0,1,0,3.73,3.73A3.72,3.72,0,0,0,239.3,324.6Zm1.2,6.26-1.31-2h-.87v2h-.7v-5h2.05a1.57,1.57,0,0,1,1.64,1.53,1.47,1.47,0,0,1-1.29,1.49l1.35,2Zm-.83-4.42h-1.35v1.78h1.35a.89.89,0,1,0,0-1.78Z"/></g></g></svg>