<svg xmlns="http://www.w3.org/2000/svg" viewBox="0 0 149.17 174.97"><defs><style>.cls-1{fill:#0072bc;}.cls-2{fill:#f7ce3c;}</style></defs><title>Asset 1</title><g id="Layer_2" data-name="Layer 2"><g id="Layer_1-2" data-name="Layer 1"><path class="cls-1" d="M120.27,65.34c0,.3,0,.62,0,.95s0,.65,0,.95Z"/><path class="cls-1" d="M40,78.86l-.11-.05Z"/><path class="cls-2" d="M59.47,150.85c-5.76,4.4-8.48,10.77-7,12.62.77.94,5.14,1.81,6.69,1.85,3,.08,5.78-.7,8.88-4.31,2.47-2.87,5.37-7.22,6.17-10.27,1,3,4.18,7.21,6.85,9.95,3.33,3.42,6.12,4,9.14,3.76,1.54-.13,5.85-1.27,6.56-2.25C98.14,160.27,95,154.08,89,150c-2.08-1.4-9-3.21-15.63-3-6.12.22-12,2.39-13.86,3.79"/><path class="cls-1" d="M71.4,156.51a22,22,0,0,0,2.82-5.76,22.1,22.1,0,0,0,3.3,5.76Zm9.68,4.19c-.53-.55-1.09-1.16-1.64-1.81H69.74c-.57.76-1.14,1.48-1.69,2.12a16.55,16.55,0,0,1-1.81,1.8H83.57A15.91,15.91,0,0,1,81.07,160.69ZM74.66,175a9.78,9.78,0,0,0,10-9.6H64.7A9.78,9.78,0,0,0,74.66,175Zm11.07-42.88a1,1,0,0,0-1.43-.13l-5.25,4.4a8.72,8.72,0,0,0-4.7-1.46,8.25,8.25,0,0,0-4.63,1.49L64.42,132a1,1,0,1,0-1.3,1.56l5,4.2a12.47,12.47,0,0,0-3.62,8.46,37.93,37.93,0,0,1,9.5-1.52,64.84,64.84,0,0,1,10.6,1.46,12.15,12.15,0,0,0-3.93-8.48l4.92-4.13A1,1,0,0,0,85.74,132.09Z"/><path class="cls-1" d="M32.95,73c-3.55-3.68-6.84-7.68-6.84-7.68s3.24-3.39,6.75-6.54Zm83.43-19.46H40.66a3.28,3.28,0,0,0-1.21.35c1.72.69,2.7,2.25,2.06,3.79L41,58.82a5,5,0,0,0,.19,4.33L42.35,65a2.52,2.52,0,0,1-.13,2.87L41.38,69A4.88,4.88,0,0,0,41,73.47l.69,1.84A2.88,2.88,0,0,1,40,78.86a2.05,2.05,0,0,0,.7.15h75.72c3.12,0,3.82-7.65,3.89-12.73S119.49,53.56,116.38,53.56ZM126.06,83H13.19c-3.32,0-3.9,8.66-3.9,13.67v-1.9c0,5,.58,13.67,3.9,13.67H126.06ZM142,95.73l-6-6.21v12.41ZM42.74,144.17H10.13c-3.32,0-3.9,6.89-3.9,12.3v.42c0,5.41.58,14.77,3.9,14.77h26c.27-10.2,3.38-19.54,6.65-27.48m96.3,0H106.59c3.27,7.94,6.22,17.28,6.49,27.48h26c3.32,0,3.9-9.36,3.9-14.77v-.42c0-5.41-.58-12.3-3.9-12.3m6.23-31.62H3.9c-3.32,0-3.9,8.67-3.9,13.68v.38c0,5,.58,13.68,3.9,13.68H44.65c7.06-12.73,17.85-20.57,29.94-20.57s22.87,7.85,29.94,20.57h40.75c3.32,0,3.9-8.66,3.9-13.68v-.38c0-5-.58-13.68-3.9-13.68"/><path class="cls-2" d="M42.35,65a2.52,2.52,0,0,1-.13,2.87L41.38,69A4.88,4.88,0,0,0,41,73.47l.69,1.84A2.88,2.88,0,0,1,40,78.86c-1.68-.63-7-5.84-7-5.84L32.86,58.8s4.87-4.13,6.58-4.9c1.73.69,2.72,2.25,2.08,3.8L41,58.82a5,5,0,0,0,.19,4.33Zm58.74-25c.68,0,.6-.46.76-1.13,0,0,2.22-11.05,3.6-16.5s3.25-10.69,3.25-10.69c.3-1.21.47-2.82-2.05-1.72L90.12,17.37a1.49,1.49,0,0,1-1.82-.48s-4.8-6.54-6.7-9.05c-1-1.36-4.68-6.64-4.68-6.64-1.13-1.63-1.37-1.53-2.4,0,0,0-4.8,6.6-6.62,8.94-1.2,1.55-5.07,6.79-5.07,6.79a1.49,1.49,0,0,1-1.81.47s-5.72-3.09-8-4.13C51.24,12.43,44.83,10,44.83,10c-2.49-1.12-2.37.51-2.06,1.72,0,0,2,6.27,3.66,12.86.89,3.48,3.19,14.3,3.19,14.3.17.66.27,1.13,1,1.13,0,0,13.61-1.22,25.46-1.22C88.2,38.78,101.09,40,101.09,40ZM32.54,83H25.9v25.43h6.63Zm94.85,0h-1.33v25.45h1.33c1.41,0,8.58-6.58,8.58-6.58V89.53s-7-6.52-8.58-6.52m2.33,61.2h-8.87v27.45h8.87ZM20.39,112.55H18.46v27.74h1.94Zm11.81,0H23.89v27.74H32.2Z"/></g></g></svg>