<svg xmlns="http://www.w3.org/2000/svg" viewBox="0 0 116.57 111.99"><defs><style>.cls-1{fill:#0072bc;}.cls-2{fill:#f7ce3c;}</style></defs><title>Asset 1</title><g id="Layer_2" data-name="Layer 2"><g id="Layer_1-2" data-name="Layer 1"><rect class="cls-1" x="32.63" y="70.34" width="51.6" height="10.16"/><rect class="cls-1" x="32.66" y="47.29" width="51.6" height="16.89"/><path class="cls-1" d="M32.21,37.43c0-13.73,11.23-29.2,25.48-29.21S84.26,23.55,84.27,37.28c0,0-16.92-3.75-27.46-3.79-11.56,0-24.6,3.94-24.6,3.94"/><path class="cls-1" d="M84.27,87.12c0,13.73-11.54,24.86-25.79,24.86s-25.8-11.11-25.81-24.84Z"/><path class="cls-2" d="M19.15,49.53C4.24,60.94-2.82,77.42,1,82.2c2,2.43,13.32,4.69,17.33,4.8,7.85.2,15-1.8,23-11.15,6.39-7.44,13.9-18.7,16-26.59C59.85,57,68.17,67.92,75.09,75c8.63,8.85,15.85,10.42,23.67,9.74,4-.35,15.14-3.29,17-5.83,3.55-5-4.57-21-20.2-31.51C90.15,43.79,72.29,39.09,55,39.72c-15.85.58-31.17,6.19-35.9,9.81"/><path class="cls-1" d="M57.76,29,28.58,4.65a2.63,2.63,0,1,1,3.37-4L57.75,22.17,83.45.62a2.63,2.63,0,1,1,3.38,4Z"/></g></g></svg>