<svg xmlns="http://www.w3.org/2000/svg" viewBox="0 0 200.52 200.52"><title>search_icon</title><g id="Layer_2" data-name="Layer 2"><g id="Layer_1-2" data-name="Layer 1"><path d="M79.56,12a67.64,67.64,0,0,1,67.56,67.56A66.78,66.78,0,0,1,132,122.08l-4.46,5.5-5.5,4.46a66.78,66.78,0,0,1-42.52,15.07A67.56,67.56,0,1,1,79.56,12m0-12a79.56,79.56,0,1,0,50.08,141.37l.24.27,56.67,56.67a7.57,7.57,0,0,0,10.71,0l1-1a7.57,7.57,0,0,0,0-10.71l-56.67-56.67-.27-.24A79.55,79.55,0,0,0,79.56,0Z"/><path d="M24.75,59.51A58.35,58.35,0,0,0,108.7,130.1,67.27,67.27,0,0,1,24.51,65c0-1.86.1-3.7.24-5.52Z"/></g></g></svg>