<svg xmlns="http://www.w3.org/2000/svg" viewBox="0 0 511.63 84.92"><title>slide_up_arrow</title><g id="Layer_2" data-name="Layer 2"><g id="Layer_1-2" data-name="Layer 1"><path d="M14.39,78.92a8.4,8.4,0,0,1-1.88-16.59L251.32,7.2l3.78,16.37L16.29,78.7A8.47,8.47,0,0,1,14.39,78.92Zm482.85,0a8.5,8.5,0,0,1-1.9-.22L257.46,23.78l3.1-16.53L499.12,62.33a8.4,8.4,0,0,1-1.88,16.59Z"/><path d="M264.91,14.41l2.24.52,215.1,49.66,15.52,3.58a2.4,2.4,0,0,1,1.8,2.88,2.42,2.42,0,0,1-2.33,1.86,2.46,2.46,0,0,1-.55-.06l-15.52-3.58L266.07,19.61l-2.2-.51,1-4.69m-18.23,0,1,4.69-2.13.49L30.46,69.27,14.94,72.85a2.38,2.38,0,0,1-2.88-1.8,2.4,2.4,0,0,1,1.8-2.88l15.52-3.58,215.1-49.66,2.19-.51M255.82,0h0l-14,3.24L26.68,52.9,11.16,56.48a14.4,14.4,0,1,0,6.48,28.06L33.16,81,248.26,31.3l7.55-1.74,7.55,1.74L478.47,81,494,84.54a14.4,14.4,0,1,0,6.48-28.06L485,52.9,269.85,3.24,255.82,0Z"/></g></g></svg>